<svg width="157" height="40" viewBox="0 0 157 40" fill="none" xmlns="http://www.w3.org/2000/svg">
<path d="M134.92 12.8702C133.26 12.8629 131.919 13.4563 131.141 14.5187L131.162 9.68844C131.167 8.64347 130.451 8.13203 128.975 8.12563L127.648 8.11988L127.566 26.966C127.562 27.8994 128.289 28.4375 129.56 28.4433L131.08 28.4499L131.121 19.0697C131.133 16.3692 132.168 15.0609 134.285 15.0701C136.295 15.0788 137.189 15.7192 137.172 19.4915L137.139 27.0077C137.135 27.9546 137.878 28.4795 139.23 28.4853L140.653 28.4915L140.693 19.4502C140.713 14.7944 139.041 12.8883 134.92 12.8702Z" fill="white"/>
<path d="M108.39 15.2376C108.395 15.2359 108.4 15.2352 108.405 15.2334C108.49 15.204 108.581 15.1797 108.675 15.1587C110.467 14.7215 111.834 15.8257 111.834 15.8257L111.839 14.6679C111.843 13.8078 111.081 12.8852 108.932 12.8759C105.771 12.862 104.009 14.325 103.545 17.3556C103.492 17.8346 103.444 18.3085 103.441 18.8418L103.406 26.8664C103.402 27.965 104.081 28.4795 105.544 28.4857L106.945 28.4917L106.952 18.7156C106.96 16.9116 107.201 15.6605 108.392 15.2389L108.39 15.2376Z" fill="white"/>
<path d="M124.774 25.0149C124.774 25.0149 123.135 26.5329 121.26 25.7174C120.424 25.1919 120.303 24.1012 120.291 23.6642L120.332 14.5635L124.005 14.5796L124.015 12.221L120.341 12.2051L120.358 8.57775L118.92 8.57135L118.863 8.70412C118.059 10.5776 116.594 11.9621 114.739 12.9322L114.616 12.994L114.609 14.5387L116.703 14.5478L116.66 24.0833C116.647 26.9546 118.117 28.4792 120.909 28.4911C121.431 28.4936 121.813 28.4419 122.163 28.3367C124.425 27.8292 124.706 26.1659 124.706 26.1659H124.706C124.866 25.546 124.774 25.0149 124.774 25.0149Z" fill="white"/>
<path d="M81.0759 13.2754L81.0772 13.2749C81.0675 13.2723 81.0582 13.2703 81.0485 13.2676C80.9455 13.2391 80.8399 13.2124 80.7315 13.1879C78.2372 12.5867 76.4844 13.1037 75.3584 13.768C75.3195 13.7899 75.2819 13.8131 75.2439 13.8358C75.2433 13.8361 75.2428 13.8365 75.2422 13.8367C74.6079 14.2141 74.0814 14.6813 73.7702 15.1813C73.7527 15.2067 73.7439 15.2208 73.7439 15.2208C73.2983 14.5377 72.5498 13.9423 71.6765 13.5261C69.7538 12.5072 67.7699 12.7586 66.3736 13.1949C65.6364 13.3801 65.0066 13.6553 64.4817 14.03C63.8995 13.5928 63.1767 13.3288 62.3893 13.3255L61.5938 13.322C61.5938 13.322 62.3849 14.3018 62.3749 16.5773L62.3621 19.463L62.3559 20.918L62.3292 26.979C62.325 27.9027 63.1731 28.4797 64.5426 28.4857L65.8861 28.4915L65.9274 19.083C65.9289 18.7372 65.9395 18.4224 65.9583 18.1339C65.9559 18.0906 65.9535 18.0473 65.9519 18.0036C65.9716 17.6516 66.048 17.081 66.3125 16.5974C66.346 16.5386 66.3809 16.4807 66.4185 16.4246C66.4273 16.412 66.4355 16.3992 66.4446 16.3868C66.952 15.6585 67.801 15.1802 68.7636 15.1802C70.1923 15.1802 71.3694 16.2331 71.5505 17.5957C71.6252 18.0245 71.6676 18.5201 71.665 19.1075L71.6301 26.9728C71.6259 27.9102 72.4168 28.4731 73.7463 28.4789L75.1874 28.485L75.2294 19.0099C75.2309 18.6166 75.2579 18.2576 75.304 17.9249C75.323 16.4061 76.5741 15.1802 78.1162 15.1802C79.4835 15.1802 80.6219 16.1438 80.8762 17.4212H80.8764C80.8766 17.4223 80.8766 17.4234 80.8766 17.4245C80.9111 17.5979 80.9301 17.7767 80.9301 17.9603C80.9301 17.9616 80.9299 17.9631 80.9299 17.9647C80.9555 18.3173 80.9681 18.7063 80.9663 19.1475L80.9314 26.979C80.9254 28.3209 82.0804 28.4811 82.9498 28.4848L84.4883 28.4915L84.5269 19.7561C84.5439 15.9271 83.592 13.9861 81.0759 13.2754Z" fill="white"/>
<path d="M55.2133 23.1909C55.202 25.8036 54.2562 26.3243 52.7345 26.3174C50.8074 26.309 49.8742 25.4174 49.8824 23.5917C49.8895 21.9089 51.2462 21.025 53.8055 21.0363L55.2226 21.0425L55.2133 23.1909ZM58.8039 23.1534C58.8077 23.0482 58.8154 22.9473 58.8159 22.8392L58.8377 17.866C58.8528 14.398 57.1879 12.6321 52.8982 12.6136C50.6963 12.6038 49.2989 13.1438 48.472 13.7862C47.8026 14.4114 47.5669 15.2353 47.4893 15.76L47.4889 15.7617C47.4889 15.7628 47.4887 15.7639 47.4885 15.7648L47.4463 16.0706L49.4549 15.5742L50.6291 15.342C50.6455 15.3402 50.6653 15.3378 50.6808 15.336V15.3358C50.6808 15.3358 50.6983 15.3333 50.7252 15.3294C50.7838 15.3216 50.841 15.313 50.9006 15.3062C51.1852 15.2713 51.7134 15.2185 52.2938 15.2187C53.2917 15.2452 54.5284 15.4904 54.9486 16.4738C54.9787 16.5502 55.0058 16.6262 55.029 16.7004C55.0569 16.808 55.1698 17.3007 55.185 18.301L55.1821 18.9247L53.8146 18.9189C49.0791 18.8982 46.244 20.7237 46.2305 23.8018C46.2212 25.9284 47.3407 28.4681 52.725 28.4913C54.7467 28.5002 56.254 28.0495 57.2645 27.1298C57.9404 28.1971 59.5732 28.0009 59.5732 28.0009C58.8492 27.5771 58.792 24.5379 58.8039 23.1534Z" fill="white"/>
<path d="M152.444 23.1909C152.432 25.8036 151.487 26.3243 149.965 26.3174C148.038 26.309 147.105 25.4174 147.113 23.5917C147.12 21.9089 148.477 21.025 151.036 21.0363L152.453 21.0425L152.444 23.1909ZM156.035 23.1534C156.038 23.0482 156.046 22.9473 156.046 22.8392L156.068 17.866C156.083 14.398 154.418 12.6321 150.129 12.6136C147.927 12.6038 146.529 13.1438 145.702 13.7862C145.033 14.4114 144.797 15.2353 144.72 15.76L144.719 15.7617C144.719 15.7628 144.719 15.7639 144.719 15.7648L144.677 16.0706L146.686 15.5742L147.86 15.342C147.876 15.3402 147.896 15.3378 147.911 15.336V15.3358C147.911 15.3358 147.929 15.3333 147.956 15.3294C148.014 15.3216 148.071 15.313 148.131 15.3062C148.416 15.2713 148.944 15.2185 149.524 15.2187C150.522 15.2452 151.759 15.4904 152.179 16.4738C152.209 16.5502 152.236 16.6262 152.259 16.7004C152.288 16.808 152.4 17.3007 152.415 18.301L152.412 18.9247L151.045 18.9189C146.31 18.8982 143.474 20.7237 143.461 23.8018C143.452 25.9284 144.571 28.4681 149.955 28.4913C151.977 28.5002 153.485 28.0495 154.495 27.1298C155.171 28.1971 156.803 28.0009 156.803 28.0009C156.08 27.5771 156.022 24.5379 156.035 23.1534Z" fill="white"/>
<path d="M96.2797 23.1909C96.2682 25.8036 95.3226 26.3243 93.8009 26.3174C91.8738 26.309 90.9404 25.4174 90.9486 23.5917C90.9556 21.9089 92.3126 21.025 94.872 21.0363L96.289 21.0425L96.2797 23.1909ZM99.8703 23.1534C99.8741 23.0482 99.8818 22.9473 99.8823 22.8392L99.9039 17.866C99.9192 14.398 98.2543 12.6321 93.9644 12.6136C91.7627 12.6038 90.3653 13.1438 89.5382 13.7862C88.869 14.4114 88.6331 15.2353 88.5555 15.76L88.5553 15.7617C88.5551 15.7628 88.5549 15.7639 88.5546 15.7648L88.5127 16.0706L90.5213 15.5742L91.6955 15.342C91.7116 15.3402 91.7315 15.3378 91.7472 15.336V15.3358C91.7472 15.3358 91.7647 15.3333 91.7916 15.3294C91.8499 15.3216 91.9074 15.313 91.967 15.3062C92.2514 15.2713 92.7796 15.2185 93.36 15.2187C94.3581 15.2452 95.5948 15.4904 96.015 16.4738C96.0451 16.5502 96.0722 16.6262 96.0952 16.7004C96.1233 16.808 96.2362 17.3007 96.2512 18.301L96.2483 18.9247L94.881 18.9189C90.1453 18.8982 87.3102 20.7237 87.2969 23.8018C87.2877 25.9284 88.4069 28.4681 93.7914 28.4913C95.8131 28.5002 97.3204 28.0495 98.3307 27.1298C99.0068 28.1971 100.639 28.0009 100.639 28.0009C99.9156 27.5771 99.8582 24.5379 99.8703 23.1534Z" fill="white"/>
<path fill-rule="evenodd" clip-rule="evenodd" d="M23.5428 23.5722C23.3051 23.5362 23.0627 23.5181 22.8153 23.5207C21.7668 23.5313 20.7905 23.8972 20.0294 24.5027C19.256 23.914 18.3065 23.5671 17.2582 23.5777C17.0242 23.5804 16.7938 23.6014 16.5698 23.6374C16.5877 23.4677 16.5958 23.2945 16.5941 23.1191C16.5824 21.9791 16.15 20.9421 15.447 20.1532C16.1337 19.3499 16.5444 18.3049 16.5327 17.1652C16.5309 16.9977 16.5201 16.8338 16.5002 16.6721C16.6634 16.688 16.8276 16.6968 16.9944 16.6951C18.1344 16.6834 19.2396 16.2501 20.0294 15.5467C20.8318 16.2338 21.8085 16.6454 22.9474 16.6339C23.1243 16.6319 23.2976 16.6195 23.4681 16.5972C23.4347 16.8274 23.4182 17.0605 23.4206 17.2984C23.4314 18.3458 23.7975 19.3055 24.4031 20.0666C23.8134 20.84 23.467 21.807 23.4778 22.8544C23.4803 23.0988 23.5028 23.3385 23.5428 23.5722ZM26.9229 18.5785C26.2546 17.7129 25.8459 16.6337 25.8174 15.4595C25.8172 15.4352 25.8159 15.4111 25.8156 15.3868C25.8108 14.8992 25.8726 14.4262 25.9924 13.976C25.5739 14.0955 25.1359 14.1682 24.6816 14.1825C24.6439 14.1838 24.6056 14.1854 24.5674 14.1858C23.3093 14.1989 22.1494 13.7727 21.2319 13.0503C20.7017 12.6327 20.3732 12.1164 20.0319 11.5281C19.7051 12.1182 19.1479 12.6403 18.6305 13.0653C17.7332 13.8041 16.5886 14.2541 15.3355 14.2727C15.3286 14.2727 15.322 14.274 15.314 14.274C14.832 14.2791 14.3634 14.2163 13.9174 14.1003C14.0451 14.5479 14.118 15.0198 14.123 15.5074C14.1233 15.5361 14.1224 15.5637 14.1228 15.5913C14.1171 16.8396 13.6783 17.8803 12.9491 18.7846C12.5315 19.3031 12.0196 19.7421 11.4375 20.0732L11.4377 20.1053C12.03 20.4265 12.5532 20.8582 12.9837 21.3711C13.7422 22.2787 14.2059 23.5521 14.2191 24.8286C14.2191 24.8452 14.2183 24.8602 14.2185 24.8759C14.2198 25.3305 14.163 25.7715 14.0561 26.1917C14.5063 26.0638 14.9816 25.9887 15.4724 25.9836C15.4793 25.9836 15.4844 25.9847 15.4899 25.9845C16.6643 25.9759 17.7528 26.3499 18.6367 26.9906C19.2268 27.4169 19.6612 27.9637 20.035 28.5942C20.3917 27.9635 20.9396 27.413 21.5132 26.9749C22.3907 26.3044 23.484 25.901 24.6724 25.8886C24.7033 25.8884 24.732 25.8893 24.7625 25.8899C25.2253 25.8926 25.6754 25.9555 26.1035 26.0704C25.9895 25.6573 25.9237 25.2245 25.9135 24.7762C25.9133 24.7544 25.912 24.7301 25.9117 24.7082C25.8994 23.513 26.2836 22.4073 26.9401 21.5128C27.3767 20.9191 27.933 20.4886 28.575 20.1181C28.5759 20.0995 28.5756 20.0798 28.5754 20.0613C27.9312 19.7085 27.3705 19.1559 26.9229 18.5785Z" fill="white"/>
<path d="M25.6034 1.90146C25.6034 1.90146 25.599 1.8913 25.599 1.89108C25.5767 1.83938 25.5551 1.79652 25.5347 1.7583C25.3724 1.4764 25.1333 1.21439 24.8234 0.978883C24.7805 0.947071 24.7376 0.914816 24.6835 0.879026C24.1361 0.518037 23.4342 0.30816 22.9382 0.194605C22.8024 0.166769 22.6652 0.142467 22.528 0.117724L22.5315 0.113526L22.3835 0.0905504C22.3716 0.0883408 22.3598 0.0859118 22.3481 0.0837021C22.3468 0.0834808 22.3455 0.0845852 22.3444 0.0843649L21.7994 -2.86102e-05L22.2498 0.413098C23.4125 1.62531 23.1366 2.49022 23.0794 2.63161C23.0714 2.64266 23.065 2.65503 23.0602 2.66828C22.7219 3.56766 21.2203 4.52448 21.1993 4.53796L20.0002 5.37084L18.795 4.53398C18.1974 4.15709 16.6903 3.00387 16.8904 2.20037C17.0488 1.56521 18.0468 1.40372 18.4983 1.36329C18.4561 1.67523 18.5458 2.11774 19.0601 2.44957C19.1081 2.48183 19.1595 2.51298 19.2161 2.54147C19.2161 2.54147 19.8935 2.91948 20.7844 2.53816C20.8412 2.50966 20.8927 2.47851 20.9375 2.44825C21.6171 2.00993 21.5583 1.38229 21.4397 1.12977C21.4335 1.11077 21.2784 0.659428 20.5799 0.349694C20.3762 0.264859 20.0552 0.181129 20.0417 0.177594C20.0306 0.174723 20.0194 0.172956 20.0081 0.172734C19.8552 0.13584 19.7048 0.106236 19.5561 0.0817127C19.5557 0.0814924 19.5139 0.0759697 19.5135 0.0759697C19.0389 0.000855446 18.5507 -0.0188065 18.0417 0.0178671C17.9091 0.0280294 17.7821 0.0428314 17.6584 0.0596209C17.6528 0.0598421 17.6473 0.0602846 17.6418 0.0607262C16.7709 0.159699 16.1587 0.432319 16.1333 0.443807C16.1249 0.447562 16.1168 0.452202 16.109 0.457504C15.9299 0.532397 15.7772 0.60486 15.6453 0.677322C15.5629 0.720844 15.5141 0.750007 15.5141 0.750007C15.509 0.7531 15.5039 0.756413 15.4991 0.759948C15.032 1.04207 14.6843 1.37787 14.4632 1.76294C14.4455 1.7963 14.4241 1.83894 14.3971 1.90146C14.2676 2.20545 14.0984 2.84127 14.4157 3.68586C14.4925 3.87386 14.5973 4.06253 14.7413 4.26954C15.1555 4.80727 16.066 5.4232 16.7641 5.8498C17.0334 5.99451 17.2958 6.14717 17.5444 6.3027C17.5455 6.30314 17.5488 6.30491 17.5525 6.30711C17.5563 6.31021 17.5605 6.31308 17.5647 6.31551C18.3991 6.83998 19.1724 7.45083 19.8822 8.14962C19.9131 8.18121 19.9661 8.19667 20.0105 8.18938C20.0538 8.18938 20.1066 8.16243 20.1378 8.13172C20.8273 7.4515 21.6005 6.84042 22.4358 6.31551C22.44 6.31308 22.4442 6.31021 22.448 6.30711C22.452 6.30491 22.4553 6.30314 22.4562 6.3027C22.7047 6.14717 22.9672 5.99451 23.2442 5.84538C23.9346 5.4232 24.845 4.80727 25.2641 4.26269C25.4039 4.06121 25.5087 3.87254 25.5864 3.68144C25.9021 2.84083 25.7327 2.20545 25.6034 1.90146Z" fill="white"/>
<path d="M25.6034 38.0985C25.6034 38.0987 25.599 38.1088 25.599 38.1091C25.5767 38.1605 25.5551 38.2036 25.5347 38.2416C25.3724 38.5237 25.1333 38.7855 24.8234 39.021C24.7805 39.0529 24.7376 39.0851 24.6835 39.1211C24.1361 39.4819 23.4342 39.6918 22.9382 39.8055C22.8024 39.8334 22.6652 39.8577 22.528 39.8822L22.5315 39.8866L22.3835 39.9094C22.3716 39.9116 22.3598 39.9142 22.3481 39.9162C22.3468 39.9164 22.3455 39.9156 22.3444 39.9156L21.7994 40L22.2498 39.5868C23.4125 38.3746 23.1366 37.5099 23.0794 37.3683C23.0714 37.3573 23.065 37.3451 23.0602 37.3316C22.7219 36.4325 21.2203 35.4757 21.1993 35.462L20.0002 34.6293L18.795 35.4662C18.1974 35.8428 16.6903 36.9961 16.8904 37.7996C17.0488 38.4347 18.0468 38.5962 18.4983 38.6369C18.4561 38.3247 18.5458 37.8822 19.0601 37.5504C19.1081 37.5181 19.1595 37.4869 19.2161 37.4587C19.2161 37.4587 19.8935 37.0807 20.7844 37.4618C20.8412 37.4903 20.8927 37.5214 20.9375 37.5517C21.6171 37.9902 21.5583 38.6179 21.4397 38.8701C21.4335 38.8891 21.2784 39.3405 20.5799 39.6502C20.3762 39.7351 20.0552 39.8188 20.0417 39.8225C20.0306 39.8252 20.0194 39.827 20.0081 39.8272C19.8552 39.8641 19.7048 39.8939 19.5561 39.9182C19.5557 39.9184 19.5139 39.9242 19.5135 39.9242C19.0389 39.9991 18.5507 40.0187 18.0417 39.9821C17.9091 39.9719 17.7821 39.9571 17.6584 39.9403C17.6528 39.9401 17.6473 39.9399 17.6418 39.9392C16.7709 39.8402 16.1587 39.5676 16.1333 39.5563C16.1249 39.5524 16.1168 39.5477 16.109 39.5424C15.9299 39.4675 15.7772 39.3951 15.6453 39.3226C15.5629 39.2791 15.5141 39.2501 15.5141 39.2501C15.509 39.2468 15.5039 39.2435 15.4991 39.24C15.032 38.9579 14.6843 38.6221 14.4632 38.237C14.4455 38.2036 14.4241 38.161 14.3971 38.0985C14.2676 37.7945 14.0984 37.1587 14.4157 36.3143C14.4925 36.1261 14.5973 35.9374 14.7413 35.7304C15.1555 35.1927 16.066 34.5767 16.7641 34.1503C17.0334 34.0054 17.2958 33.8528 17.5444 33.6972C17.5455 33.6968 17.5488 33.695 17.5525 33.6928C17.5563 33.6899 17.5605 33.6868 17.5647 33.6844C18.3991 33.1599 19.1724 32.5491 19.8822 31.8503C19.9131 31.8187 19.9661 31.8033 20.0105 31.8105C20.0538 31.8105 20.1066 31.8375 20.1378 31.8682C20.8273 32.5484 21.6005 33.1597 22.4358 33.6844C22.44 33.6868 22.4442 33.6899 22.448 33.6928C22.452 33.695 22.4553 33.6968 22.4562 33.6972C22.7047 33.8528 22.9672 34.0054 23.2442 34.1545C23.9346 34.5767 24.845 35.1927 25.2641 35.7372C25.4039 35.9389 25.5087 36.1274 25.5864 36.3185C25.9021 37.1591 25.7327 37.7945 25.6034 38.0985Z" fill="white"/>
<path d="M1.90153 14.3971C1.90153 14.3971 1.89137 14.4017 1.89115 14.4017C1.83945 14.4238 1.79659 14.4455 1.75815 14.4658C1.47647 14.6282 1.21446 14.8672 0.978953 15.1772C0.94714 15.22 0.914885 15.2629 0.879095 15.3172C0.518107 15.8645 0.308229 16.5663 0.194675 17.0623C0.166617 17.1982 0.142537 17.3356 0.117572 17.4726L0.113596 17.469L0.0906197 17.617C0.0884104 17.629 0.0859803 17.6407 0.083771 17.6524C0.0835501 17.6537 0.0846546 17.655 0.0844336 17.6562L4.08868e-05 18.2012L0.413168 17.7507C1.62537 16.5882 2.49007 16.8639 2.63168 16.9211C2.64273 16.9291 2.6551 16.9357 2.66835 16.9406C3.56773 17.2786 4.52455 18.7802 4.53803 18.8012L5.37069 20.0004L4.53405 21.2055C4.15716 21.8031 3.00394 23.3102 2.20044 23.1101C1.56528 22.9517 1.40379 21.9538 1.36336 21.5022C1.6753 21.5444 2.11781 21.4549 2.44964 20.9406C2.48189 20.8925 2.51305 20.841 2.54154 20.7844C2.54154 20.7844 2.91954 20.1071 2.53823 19.2161C2.50973 19.1595 2.47858 19.1078 2.44831 19.063C2.01 18.3834 1.38236 18.4422 1.12984 18.5608C1.11084 18.567 0.659497 18.7221 0.349763 19.4207C0.264928 19.6244 0.181198 19.9454 0.177663 19.9588C0.174791 19.9699 0.173024 19.9812 0.172803 19.9924C0.135909 20.1453 0.106305 20.2957 0.0815617 20.4446C0.0815617 20.4449 0.0760387 20.4868 0.0760387 20.4871C0.00092476 20.9616 -0.0187375 21.4499 0.0179358 21.9589C0.0280982 22.0914 0.0429001 22.2184 0.0596903 22.3422C0.0599112 22.3479 0.0603531 22.3532 0.060795 22.3587C0.159769 23.2298 0.432388 23.8418 0.443876 23.8674C0.447632 23.8758 0.452271 23.8838 0.457573 23.8915C0.532467 24.0709 0.604929 24.2233 0.677392 24.3552C0.720914 24.4378 0.750076 24.4864 0.750076 24.4864C0.752948 24.4915 0.756483 24.4966 0.760018 24.5017C1.04214 24.9685 1.37794 25.316 1.76301 25.5374C1.79637 25.555 1.83901 25.5765 1.90153 25.6034C2.20552 25.7329 2.84134 25.9021 3.68593 25.5847C3.87393 25.508 4.0626 25.4033 4.26961 25.2592C4.80734 24.845 5.42327 23.9346 5.84987 23.2365C5.99458 22.9672 6.14702 22.7047 6.30277 22.4562C6.30321 22.4551 6.30498 22.4517 6.30718 22.448C6.31028 22.444 6.31315 22.44 6.31558 22.4358C6.84005 21.6016 7.45091 20.8282 8.14969 20.1183C8.18128 20.0874 8.19674 20.0344 8.18923 19.99C8.18923 19.9467 8.1625 19.8941 8.13179 19.8627C7.45157 19.1732 6.84049 18.4 6.31558 17.5647C6.31315 17.5605 6.31028 17.5563 6.30718 17.5525C6.30498 17.5488 6.30321 17.5455 6.30277 17.5446C6.14702 17.2958 5.99458 17.0334 5.84523 16.7563C5.42327 16.0659 4.80734 15.1555 4.26276 14.7364C4.06106 14.5966 3.87261 14.4919 3.68151 14.4141C2.8409 14.0984 2.20552 14.2678 1.90153 14.3971Z" fill="white"/>
<path d="M38.0982 14.3971L38.1086 14.4017C38.1602 14.4238 38.2031 14.4455 38.2415 14.4658C38.5232 14.6282 38.7852 14.8672 39.0207 15.1772C39.0528 15.22 39.0848 15.2629 39.1206 15.3172C39.4816 15.8645 39.6915 16.5663 39.805 17.0623C39.8331 17.1982 39.8572 17.3356 39.8821 17.4726L39.8863 17.469L39.9091 17.617C39.9113 17.629 39.9137 17.6407 39.9159 17.6524C39.9161 17.6537 39.915 17.655 39.9153 17.6562L39.9997 18.2012L39.5865 17.7507C38.3743 16.5882 37.5096 16.8639 37.368 16.9211C37.357 16.9291 37.3446 16.9357 37.3316 16.9406C36.432 17.2786 35.4751 18.7802 35.4617 18.8012L34.629 20.0004L35.4656 21.2055C35.8425 21.8031 36.9958 23.3102 37.7993 23.1101C38.4344 22.9517 38.5959 21.9538 38.6363 21.5022C38.3244 21.5444 37.8819 21.4549 37.5501 20.9406C37.5178 20.8925 37.4867 20.841 37.4582 20.7844C37.4582 20.7844 37.0802 20.1071 37.4615 19.2161C37.49 19.1595 37.5211 19.1078 37.5514 19.063C37.9897 18.3834 38.6173 18.4422 38.8699 18.5608C38.8889 18.567 39.3402 18.7221 39.6502 19.4207C39.7348 19.6244 39.8185 19.9454 39.822 19.9588C39.8249 19.9699 39.8267 19.9812 39.8269 19.9924C39.8638 20.1453 39.8936 20.2957 39.9181 20.4446C39.9181 20.4449 39.9237 20.4868 39.9237 20.4871C39.9988 20.9616 40.0184 21.4499 39.9818 21.9589C39.9716 22.0914 39.9568 22.2184 39.94 22.3422C39.9398 22.3479 39.9396 22.3532 39.9389 22.3587C39.8399 23.2298 39.5673 23.8418 39.556 23.8674C39.5521 23.8758 39.5474 23.8838 39.5421 23.8915C39.4672 24.0709 39.3948 24.2233 39.3223 24.3552C39.2788 24.4378 39.2496 24.4864 39.2496 24.4864C39.2467 24.4915 39.2432 24.4966 39.2397 24.5017C38.9576 24.9685 38.6218 25.316 38.2367 25.5374C38.2033 25.555 38.1607 25.5765 38.0982 25.6034C37.7942 25.7329 37.1584 25.9021 36.3138 25.5847C36.126 25.508 35.9371 25.4033 35.7301 25.2592C35.1924 24.845 34.5764 23.9346 34.1498 23.2365C34.0051 22.9672 33.8527 22.7047 33.6969 22.4562C33.6965 22.4551 33.6947 22.4517 33.6925 22.448C33.6896 22.444 33.6868 22.44 33.6841 22.4358C33.1596 21.6016 32.5488 20.8282 31.85 20.1183C31.8184 20.0874 31.803 20.0344 31.8105 19.99C31.8105 19.9467 31.8372 19.8941 31.8679 19.8627C32.5481 19.1732 33.1592 18.4 33.6841 17.5647C33.6868 17.5605 33.6896 17.5563 33.6925 17.5525C33.6947 17.5488 33.6965 17.5455 33.6969 17.5446C33.8527 17.2958 34.0051 17.0334 34.1545 16.7563C34.5764 16.0659 35.1924 15.1555 35.7369 14.7364C35.9386 14.5966 36.1273 14.4919 36.3182 14.4141C37.1588 14.0984 37.7942 14.2678 38.0982 14.3971Z" fill="white"/>
<path d="M11.166 3.24051L11.1554 3.23631C11.1031 3.21554 11.0576 3.20052 11.016 3.18771C10.7019 3.10331 10.3475 3.08697 9.962 3.13955C9.9092 3.1475 9.85618 3.15501 9.79233 3.16804C9.1501 3.29972 8.50545 3.64767 8.07443 3.91808C7.95866 3.99452 7.84423 4.07427 7.73001 4.1538L7.72935 4.14828L7.6085 4.23687C7.59878 4.24372 7.58862 4.25013 7.5789 4.2572C7.57779 4.25786 7.57757 4.25941 7.57647 4.26029L7.13153 4.58593L7.74216 4.55942C9.4214 4.59455 9.83784 5.40092 9.89749 5.54165C9.8997 5.55512 9.90367 5.56838 9.90964 5.58097C10.3064 6.45627 9.92135 8.19449 9.91605 8.2188L9.6569 9.6559L8.21295 9.91615C7.52411 10.0723 5.64295 10.3227 5.21612 9.61282C4.87899 9.05168 5.47062 8.23183 5.76136 7.8841C5.95202 8.1344 6.32825 8.38405 6.92673 8.25503C6.98351 8.24376 7.04183 8.2294 7.10192 8.20952C7.10192 8.20952 7.8482 7.99787 8.20853 7.09827C8.22863 7.03796 8.24299 6.97942 8.25338 6.92639C8.42371 6.13593 7.93856 5.73363 7.6761 5.63907C7.65821 5.63002 7.2294 5.42058 6.51648 5.69519C6.31256 5.77958 6.02625 5.94704 6.01432 5.95433C6.00438 5.95985 5.99532 5.9667 5.98714 5.97443C5.85304 6.05662 5.72535 6.14189 5.60296 6.22982C5.60252 6.22982 5.56916 6.25567 5.56894 6.25589C5.18011 6.53845 4.82089 6.86984 4.48707 7.25557C4.40047 7.35653 4.32116 7.45683 4.2456 7.55625C4.24185 7.56022 4.23809 7.5642 4.23456 7.56862C3.68888 8.25459 3.44873 8.88002 3.43879 8.90609C3.43548 8.91493 3.43327 8.92376 3.4315 8.93304C3.35749 9.11265 3.30094 9.27172 3.25896 9.41642C3.23134 9.50545 3.21743 9.56046 3.21743 9.56046C3.2161 9.56621 3.21478 9.57239 3.21389 9.57836C3.08311 10.1079 3.07471 10.5913 3.19069 11.0199C3.20174 11.0561 3.21676 11.1012 3.24195 11.1646C3.36545 11.471 3.69528 12.0403 4.51668 12.413C4.70402 12.4917 4.91147 12.5511 5.15979 12.5957C5.83294 12.683 6.91215 12.4749 7.70747 12.2827C8.0002 12.1948 8.29381 12.117 8.57946 12.0512C8.58056 12.0507 8.5841 12.0498 8.58852 12.0487C8.59316 12.0481 8.59824 12.047 8.60288 12.0459C9.56367 11.8267 10.5424 11.712 11.5385 11.7043C11.5827 11.7047 11.6313 11.678 11.6574 11.6416C11.6881 11.6109 11.7062 11.5545 11.7066 11.5108C11.7133 10.5422 11.8279 9.56334 12.0473 8.60166C12.0484 8.5968 12.0495 8.59172 12.0499 8.58708C12.0513 8.58266 12.0522 8.57912 12.0526 8.57824C12.1184 8.29236 12.1962 7.99876 12.2863 7.69742C12.4763 6.91071 12.6844 5.8315 12.5958 5.15017C12.5519 4.9087 12.4927 4.70125 12.4125 4.51104C12.0413 3.69362 11.4725 3.364 11.166 3.24051Z" fill="white"/>
<path d="M36.7587 28.8356C36.7587 28.8356 36.7629 28.846 36.7629 28.8462C36.7837 28.8984 36.7987 28.9439 36.8115 28.9856C36.8959 29.2998 36.912 29.6539 36.8595 30.0394C36.8517 30.0925 36.844 30.1455 36.8312 30.2093C36.6993 30.8513 36.3513 31.4962 36.0809 31.9272C36.0047 32.043 35.9247 32.1572 35.8454 32.2716L35.8507 32.2723L35.7624 32.3932C35.7553 32.4027 35.7491 32.4128 35.742 32.4228C35.7414 32.4239 35.7398 32.4239 35.7389 32.425L35.4133 32.8701L35.4398 32.2595C35.4047 30.58 34.5983 30.1638 34.4576 30.1039C34.4441 30.1017 34.4309 30.0978 34.418 30.092C33.543 29.6952 31.8047 30.0803 31.7802 30.0854L30.3433 30.3447L30.0831 31.7885C29.9269 32.4773 29.6766 34.3587 30.3864 34.7855C30.9473 35.1224 31.7674 34.5308 32.1151 34.2403C31.8648 34.0496 31.6152 33.6732 31.7442 33.0747C31.7555 33.0181 31.7696 32.9598 31.7897 32.8997C31.7897 32.8997 32.0011 32.1534 32.901 31.7931C32.9613 31.773 33.0196 31.7584 33.0726 31.7483C33.8633 31.5777 34.2654 32.0629 34.3602 32.3255C34.3692 32.3432 34.5786 32.772 34.3038 33.4852C34.2196 33.6891 34.052 33.9754 34.0449 33.9873C34.0392 33.9971 34.0323 34.0063 34.0248 34.0145C33.9426 34.1486 33.8571 34.2761 33.7694 34.3987C33.7692 34.3991 33.7436 34.4325 33.7433 34.4327C33.4606 34.8215 33.1294 35.1808 32.7437 35.5144C32.6427 35.601 32.5424 35.6803 32.443 35.756C32.439 35.7598 32.4348 35.7633 32.4306 35.7669C31.7446 36.3128 31.1192 36.5529 31.0929 36.5629C31.0843 36.566 31.0752 36.5684 31.0662 36.5702C30.8864 36.6439 30.7273 36.7007 30.5828 36.7427C30.4938 36.7701 30.4388 36.7842 30.4388 36.7842C30.4328 36.7856 30.4266 36.7867 30.4209 36.7875C29.8913 36.9183 29.4079 36.9267 28.9793 36.811C28.9431 36.7999 28.8978 36.7847 28.8344 36.7597C28.528 36.6362 27.9587 36.3061 27.586 35.485C27.5076 35.2976 27.4479 35.0902 27.4033 34.8419C27.316 34.1687 27.5243 33.0895 27.7163 32.2942C27.8045 32.0015 27.8822 31.7078 27.9481 31.422C27.9483 31.4211 27.9494 31.4176 27.9505 31.4131C27.9512 31.4085 27.9521 31.4034 27.9532 31.3988C28.1723 30.438 28.2872 29.4591 28.2949 28.4629C28.2945 28.4187 28.3212 28.3704 28.3577 28.3443C28.3884 28.3136 28.4447 28.2955 28.4885 28.295C29.457 28.2884 30.4359 28.1737 31.3976 27.9544C31.4022 27.9533 31.4073 27.9521 31.4122 27.9515C31.4164 27.9504 31.4199 27.9493 31.421 27.9488C31.7069 27.8832 32.0003 27.8055 32.3018 27.7153C33.0883 27.5253 34.1675 27.3172 34.8491 27.4056C35.0905 27.4498 35.298 27.509 35.488 27.589C36.3056 27.9601 36.6352 28.5292 36.7587 28.8356Z" fill="white"/>
<path d="M3.24047 28.8356C3.24047 28.8356 3.23627 28.846 3.23605 28.8462C3.2155 28.8984 3.20048 28.9439 3.18767 28.9856C3.10327 29.2998 3.08693 29.6539 3.13951 30.0394C3.14746 30.0925 3.15497 30.1455 3.16778 30.2093C3.29968 30.8513 3.64763 31.4962 3.91804 31.9272C3.99448 32.043 4.07423 32.1572 4.15377 32.2716L4.14824 32.2723L4.23683 32.3932C4.24368 32.4027 4.25009 32.4128 4.25716 32.4228C4.25782 32.4239 4.25937 32.4239 4.26025 32.425L4.58567 32.8701L4.55938 32.2595C4.59429 30.58 5.40088 30.1638 5.54139 30.1039C5.55508 30.1017 5.56834 30.0978 5.58093 30.092C6.45623 29.6952 8.19446 30.0803 8.21876 30.0854L9.65564 30.3447L9.91611 31.7885C10.0723 32.4773 10.3226 34.3587 9.61278 34.7855C9.05164 35.1224 8.23179 34.5308 7.88406 34.2403C8.13436 34.0496 8.38379 33.6732 8.25499 33.0747C8.24372 33.0181 8.22936 32.9598 8.20948 32.8997C8.20948 32.8997 7.99783 32.1534 7.09823 31.7931C7.03792 31.773 6.97938 31.7584 6.92635 31.7483C6.13589 31.5777 5.73359 32.0629 5.63903 32.3255C5.62998 32.3432 5.42054 32.772 5.69515 33.4852C5.77954 33.6891 5.947 33.9754 5.95407 33.9873C5.95981 33.9971 5.96666 34.0063 5.9744 34.0145C6.05658 34.1486 6.14186 34.2761 6.22978 34.3987C6.22978 34.3991 6.25563 34.4325 6.25585 34.4327C6.53841 34.8215 6.86958 35.1808 7.25553 35.5144C7.35627 35.601 7.45679 35.6803 7.55621 35.756C7.56018 35.7598 7.56416 35.7633 7.56858 35.7669C8.25455 36.3128 8.87998 36.5529 8.90605 36.5629C8.91467 36.566 8.92372 36.5684 8.933 36.5702C9.11261 36.6439 9.27168 36.7007 9.41638 36.7427C9.50541 36.7701 9.56043 36.7842 9.56043 36.7842C9.56617 36.7856 9.57235 36.7867 9.57832 36.7875C10.1079 36.9183 10.591 36.9267 11.0198 36.811C11.0561 36.7999 11.1011 36.7847 11.1646 36.7597C11.471 36.6362 12.0403 36.3061 12.413 35.485C12.4916 35.2976 12.5511 35.0902 12.5957 34.8419C12.683 34.1687 12.4748 33.0895 12.2826 32.2942C12.1947 32.0015 12.117 31.7078 12.0511 31.422C12.0507 31.4211 12.0498 31.4176 12.0487 31.4131C12.048 31.4085 12.0469 31.4034 12.0458 31.3988C11.8267 30.438 11.712 29.4591 11.7043 28.4629C11.7047 28.4187 11.678 28.3704 11.6415 28.3443C11.6106 28.3136 11.5545 28.2955 11.5107 28.295C10.5422 28.2884 9.5633 28.1737 8.60162 27.9544C8.59676 27.9533 8.59168 27.9521 8.58704 27.9515C8.58262 27.9504 8.57908 27.9493 8.57798 27.9488C8.29232 27.8832 7.99872 27.8055 7.69738 27.7153C6.91067 27.5253 5.83146 27.3172 5.15013 27.4056C4.90866 27.4498 4.70121 27.509 4.511 27.589C3.69358 27.9601 3.36396 28.5292 3.24047 28.8356Z" fill="white"/>
<path d="M28.8337 3.24051C28.8339 3.24051 28.8443 3.23631 28.8443 3.23631C28.8966 3.21554 28.9421 3.20052 28.9837 3.18771C29.2978 3.10331 29.6522 3.08697 30.0377 3.13955C30.0905 3.1475 30.1435 3.15501 30.2074 3.16804C30.8496 3.29972 31.4942 3.64767 31.9253 3.91808C32.041 3.99452 32.1555 4.07427 32.2697 4.1538L32.2703 4.14828L32.3912 4.23687C32.4009 4.24372 32.4111 4.25013 32.4208 4.2572C32.4219 4.25786 32.4221 4.25941 32.4232 4.26029L32.8684 4.58593L32.2575 4.55942C30.5783 4.59455 30.1619 5.40092 30.1022 5.54165C30.1 5.55512 30.096 5.56838 30.0901 5.58097C29.6933 6.45627 30.0783 8.19449 30.0836 8.2188L30.3428 9.6559L31.7867 9.91615C32.4756 10.0723 34.3568 10.3227 34.7836 9.61282C35.1207 9.05168 34.5291 8.23183 34.2383 7.8841C34.0479 8.1344 33.6714 8.38405 33.073 8.25503C33.0162 8.24376 32.9581 8.2294 32.8978 8.20952C32.8978 8.20952 32.1515 7.99787 31.7912 7.09827C31.7711 7.03796 31.7567 6.97942 31.7465 6.92639C31.576 6.13593 32.0611 5.73363 32.3236 5.63907C32.3415 5.63002 32.7703 5.42058 33.4832 5.69519C33.6874 5.77958 33.9734 5.94704 33.9854 5.95433C33.9953 5.95985 34.0044 5.9667 34.0126 5.97443C34.1467 6.05662 34.2743 6.14189 34.3967 6.22982C34.3972 6.22982 34.4305 6.25567 34.4308 6.25589C34.8196 6.53845 35.1788 6.86984 35.5126 7.25557C35.5992 7.35653 35.6785 7.45683 35.7543 7.55625C35.7578 7.56022 35.7616 7.5642 35.7651 7.56862C36.3108 8.25459 36.551 8.88002 36.5609 8.90609C36.5642 8.91493 36.5664 8.92376 36.5682 8.93304C36.6422 9.11265 36.6988 9.27172 36.7407 9.41642C36.7684 9.50545 36.7823 9.56046 36.7823 9.56046C36.7838 9.56621 36.7849 9.57239 36.7858 9.57836C36.9166 10.1079 36.925 10.5913 36.809 11.0199C36.798 11.0561 36.7829 11.1012 36.758 11.1646C36.6342 11.471 36.3044 12.0403 35.483 12.413C35.2957 12.4917 35.0882 12.5511 34.8399 12.5957C34.1668 12.683 33.0875 12.4749 32.2922 12.2827C31.9995 12.1948 31.7059 12.117 31.4202 12.0512C31.4191 12.0507 31.4158 12.0498 31.4112 12.0487C31.4065 12.0481 31.4015 12.047 31.3968 12.0459C30.436 11.8267 29.4573 11.712 28.4612 11.7043C28.417 11.7047 28.3684 11.678 28.3423 11.6416C28.3116 11.6109 28.2935 11.5545 28.2931 11.5108C28.2864 10.5422 28.1718 9.56334 27.9524 8.60166C27.9513 8.5968 27.9502 8.59172 27.9497 8.58708C27.9486 8.58266 27.9475 8.57912 27.9471 8.57824C27.8813 8.29236 27.8035 7.99876 27.7134 7.69742C27.5234 6.91071 27.3153 5.8315 27.4038 5.15017C27.4478 4.9087 27.507 4.70125 27.5872 4.51104C27.9584 3.69362 28.5275 3.364 28.8337 3.24051Z" fill="white"/>
<path d="M17.7864 8.63713C17.2842 8.23725 16.724 8.08968 16.1823 7.94718C15.7042 7.82126 15.2531 7.70218 14.879 7.41586L14.4246 7.06724L14.3848 7.63855C14.3517 8.10846 14.142 8.52534 13.9198 8.96696C13.6675 9.46714 13.4072 9.98476 13.3741 10.6257C13.3502 11.094 13.4687 11.4524 13.7258 11.6905C13.7859 11.744 13.8535 11.7888 13.9251 11.8292C13.9587 11.8482 13.9938 11.8653 14.0294 11.8812C14.6133 12.148 15.4643 12.0696 16.0203 11.9733C16.3957 11.9081 16.7461 11.7502 17.0434 11.512C17.4837 11.1594 18.1063 10.5737 18.293 9.95935C18.3049 9.92224 18.3153 9.88468 18.3232 9.8469C18.3402 9.76671 18.3517 9.68629 18.3513 9.60588C18.3431 9.25527 18.1531 8.92941 17.7864 8.63713Z" fill="white"/>
<path d="M22.1118 8.63713C22.6139 8.23725 23.1742 8.08968 23.7159 7.94718C24.194 7.82126 24.6453 7.70218 25.0191 7.41586L25.4736 7.06724L25.5133 7.63855C25.5467 8.10846 25.7564 8.52534 25.9786 8.96696C26.2307 9.46714 26.4909 9.98476 26.5241 10.6257C26.5479 11.094 26.4295 11.4524 26.1724 11.6905C26.1125 11.744 26.0447 11.7888 25.9733 11.8292C25.9397 11.8482 25.9046 11.8653 25.8688 11.8812C25.2849 12.148 24.4339 12.0696 23.8781 11.9733C23.5025 11.9081 23.1521 11.7502 22.8548 11.512C22.4145 11.1594 21.7919 10.5737 21.6052 9.95935C21.5935 9.92224 21.5829 9.88468 21.5749 9.8469C21.5579 9.76671 21.5464 9.68629 21.5469 9.60588C21.5551 9.25527 21.7451 8.92941 22.1118 8.63713Z" fill="white"/>
<path d="M17.7864 31.4858C17.2842 31.8857 16.724 32.0332 16.1823 32.1757C15.7042 32.3014 15.2531 32.4205 14.879 32.707L14.4246 33.0557L14.3848 32.4844C14.3517 32.0145 14.142 31.5973 13.9198 31.1559C13.6675 30.6556 13.4072 30.1381 13.3741 29.497C13.3502 29.0287 13.4687 28.6706 13.7258 28.4324C13.7859 28.3787 13.8535 28.3339 13.9251 28.2937C13.9587 28.2744 13.9938 28.2576 14.0294 28.2417C14.6133 27.9746 15.4643 28.0533 16.0203 28.1496C16.3957 28.2146 16.7461 28.3725 17.0434 28.6107C17.4837 28.9635 18.1063 29.5489 18.293 30.1636C18.3049 30.2007 18.3153 30.2382 18.3232 30.2758C18.3402 30.3562 18.3517 30.4366 18.3513 30.517C18.3431 30.8674 18.1531 31.1935 17.7864 31.4858Z" fill="white"/>
<path d="M22.1118 31.4858C22.6139 31.8857 23.1742 32.0332 23.7159 32.1757C24.194 32.3014 24.6453 32.4205 25.0191 32.707L25.4736 33.0557L25.5133 32.4844C25.5467 32.0145 25.7564 31.5973 25.9786 31.1559C26.2307 30.6556 26.4909 30.1381 26.5241 29.497C26.5479 29.0287 26.4295 28.6706 26.1724 28.4324C26.1125 28.3787 26.0447 28.3339 25.9733 28.2937C25.9397 28.2744 25.9046 28.2576 25.8688 28.2417C25.2849 27.9746 24.4339 28.0533 23.8781 28.1496C23.5025 28.2146 23.1521 28.3725 22.8548 28.6107C22.4145 28.9635 21.7919 29.5489 21.6052 30.1636C21.5935 30.2007 21.5829 30.2382 21.5749 30.2758C21.5579 30.3562 21.5464 30.4366 21.5469 30.517C21.5551 30.8674 21.7451 31.1935 22.1118 31.4858Z" fill="white"/>
<path d="M8.52301 22.2239C8.12314 22.7261 7.97534 23.2863 7.83284 23.828C7.70714 24.3061 7.58806 24.7572 7.30174 25.1313L6.95312 25.5857L7.52443 25.6255C7.99412 25.6586 8.41122 25.8683 8.85285 26.0905C9.35302 26.3428 9.87042 26.6031 10.5115 26.6362C10.9799 26.6598 11.3382 26.5416 11.5764 26.2845C11.6299 26.2244 11.6747 26.1568 11.7151 26.0854C11.7341 26.0516 11.7511 26.0167 11.7668 25.9809C12.0339 25.3968 11.9555 24.546 11.8592 23.99C11.794 23.6146 11.636 23.2642 11.3979 22.9669C11.0453 22.5264 10.4596 21.904 9.84523 21.7173C9.8079 21.7054 9.77056 21.6948 9.73278 21.6871C9.65259 21.6701 9.57217 21.6586 9.49176 21.6588C9.14115 21.667 8.81529 21.8572 8.52301 22.2239Z" fill="white"/>
<path d="M8.52301 17.899C8.12314 17.3968 7.97534 16.8365 7.83284 16.2948C7.70714 15.8168 7.58806 15.3654 7.30174 14.9914L6.95312 14.5369L7.52443 14.4972C7.99412 14.464 8.41122 14.2544 8.85285 14.0321C9.35302 13.7801 9.87042 13.5198 10.5115 13.4867C10.9799 13.4628 11.3382 13.581 11.5764 13.8384C11.6299 13.8983 11.6747 13.9661 11.7151 14.0374C11.7341 14.071 11.7511 14.1061 11.7668 14.1417C12.0339 14.7258 11.9555 15.5768 11.8592 16.1327C11.794 16.508 11.636 16.8586 11.3979 17.1558C11.0453 17.5963 10.4596 18.2186 9.84523 18.4055C9.8079 18.4172 9.77056 18.4278 9.73278 18.4358C9.65259 18.4528 9.57217 18.4643 9.49176 18.4639C9.14115 18.4557 8.81529 18.2655 8.52301 17.899Z" fill="white"/>
<path d="M31.3717 22.2239C31.7715 22.7261 31.9191 23.2863 32.0616 23.828C32.1875 24.3061 32.3066 24.7572 32.5929 25.1313L32.9415 25.5857L32.3702 25.6255C31.9003 25.6586 31.4834 25.8683 31.0418 26.0905C30.5417 26.3428 30.024 26.6031 29.3831 26.6362C28.9146 26.6598 28.5564 26.5416 28.3183 26.2845C28.2648 26.2244 28.22 26.1568 28.1795 26.0854C28.1605 26.0516 28.1435 26.0167 28.1276 25.9809C27.8607 25.3968 27.9392 24.546 28.0355 23.99C28.1007 23.6146 28.2586 23.2642 28.4968 22.9669C28.8494 22.5264 29.435 21.904 30.0494 21.7173C30.0866 21.7054 30.1241 21.6948 30.1619 21.6871C30.2421 21.6701 30.3225 21.6586 30.4029 21.6588C30.7535 21.667 31.0794 21.8572 31.3717 22.2239Z" fill="white"/>
<path d="M31.3717 17.899C31.7715 17.3968 31.9191 16.8365 32.0616 16.2948C32.1875 15.8168 32.3066 15.3654 32.5929 14.9914L32.9415 14.5369L32.3702 14.4972C31.9003 14.464 31.4834 14.2544 31.0418 14.0321C30.5417 13.7801 30.024 13.5198 29.3831 13.4867C28.9146 13.4628 28.5564 13.581 28.3183 13.8384C28.2648 13.8983 28.22 13.9661 28.1795 14.0374C28.1605 14.071 28.1435 14.1061 28.1276 14.1417C27.8607 14.7258 27.9392 15.5768 28.0355 16.1327C28.1007 16.508 28.2586 16.8586 28.4968 17.1558C28.8494 17.5963 29.435 18.2186 30.0494 18.4055C30.0866 18.4172 30.1241 18.4278 30.1619 18.4358C30.2421 18.4528 30.3225 18.4643 30.4029 18.4639C30.7535 18.4557 31.0794 18.2655 31.3717 17.899Z" fill="white"/>
</svg>
